<svg xmlns="http://www.w3.org/2000/svg" version="1.1" xmlns:xlink="http://www.w3.org/1999/xlink" xmlns:svgjs="http://svgjs.dev/svgjs" width="1500" height="1500" viewBox="0 0 1500 1500"><rect width="1500" height="1500" fill="#000000"></rect><g transform="matrix(0.6666666666666666,0,0,0.6666666666666666,250.10666666666668,602.1605866666666)"><svg viewBox="0 0 375 111" data-background-color="#ffffff" preserveAspectRatio="xMidYMid meet" height="444" width="1500" xmlns="http://www.w3.org/2000/svg" xmlns:xlink="http://www.w3.org/1999/xlink"><g id="tight-bounds" transform="matrix(1,0,0,1,-0.03976000000000113,-0.059930000000008476)"><svg viewBox="0 0 375.07953 111.12015000000001" height="111.12015000000001" width="375.07953"><g><svg></svg></g><g><svg viewBox="0 0 375.07953 111.12015000000001" height="111.12015000000001" width="375.07953"><g transform="matrix(1,0,0,1,-10.22024,-69.65029)"><path d="M10.22 177.55v-107.9h375.08v107.9h-125.983v-3.437h122.546v-101.026h-368.206v101.026l31.493 0 0 3.437z" fill="#ffffff" fill-rule="nonzero" stroke="none" stroke-width="1" stroke-linecap="butt" stroke-linejoin="miter" stroke-miterlimit="10" stroke-dasharray="" stroke-dashoffset="0" font-family="none" font-weight="none" font-size="none" text-anchor="none" style="mix-blend-mode: normal" data-fill-palette-color="tertiary"></path><g><path d="M61.13 170.223l-0.45 0.9c-0.3-0.154-0.629-0.288-0.985-0.401-0.357-0.114-0.706-0.17-1.047-0.171v0c-0.47 0-0.845 0.109-1.124 0.329-0.281 0.219-0.421 0.511-0.421 0.876v0c0 0.276 0.089 0.509 0.268 0.698 0.178 0.191 0.414 0.356 0.706 0.494 0.292 0.138 0.596 0.268 0.912 0.389v0c0.276 0.105 0.547 0.223 0.815 0.353 0.268 0.13 0.509 0.292 0.725 0.487 0.214 0.195 0.384 0.434 0.511 0.717 0.125 0.284 0.187 0.637 0.188 1.059v0c0 0.462-0.115 0.884-0.346 1.265-0.232 0.381-0.563 0.681-0.993 0.9-0.43 0.219-0.941 0.328-1.533 0.329v0c-0.389 0-0.76-0.045-1.112-0.134-0.354-0.089-0.68-0.205-0.98-0.348-0.3-0.141-0.568-0.289-0.803-0.443v0l0.523-0.924c0.195 0.138 0.418 0.269 0.669 0.394 0.251 0.127 0.515 0.228 0.791 0.304 0.276 0.078 0.543 0.117 0.803 0.117v0c0.276 0 0.55-0.051 0.822-0.154 0.271-0.101 0.496-0.256 0.674-0.467 0.178-0.211 0.268-0.491 0.268-0.839v0c0-0.3-0.079-0.55-0.236-0.75-0.159-0.198-0.368-0.368-0.628-0.511-0.26-0.141-0.535-0.268-0.827-0.382v0c-0.276-0.105-0.556-0.221-0.84-0.348-0.284-0.125-0.547-0.279-0.79-0.462-0.243-0.182-0.438-0.406-0.584-0.674-0.146-0.268-0.219-0.592-0.219-0.973v0c0-0.462 0.112-0.866 0.336-1.212 0.222-0.344 0.528-0.615 0.917-0.812 0.389-0.2 0.835-0.307 1.338-0.324v0c0.568 0 1.069 0.069 1.504 0.207 0.433 0.138 0.816 0.308 1.148 0.511zM62.931 178.349v-5.036h1.131v5.036zM62.846 171.488v0c0-0.178 0.071-0.328 0.214-0.45 0.141-0.122 0.297-0.182 0.467-0.183v0c0.17 0 0.323 0.061 0.457 0.183 0.133 0.122 0.2 0.272 0.2 0.45v0c0 0.187-0.067 0.338-0.2 0.455-0.135 0.118-0.287 0.178-0.457 0.178v0c-0.17 0-0.326-0.061-0.467-0.183-0.143-0.122-0.214-0.272-0.214-0.45zM68.989 178.471v0c-0.381 0-0.748-0.089-1.099-0.268-0.354-0.178-0.628-0.418-0.823-0.717v0l0.073-0.353v3.637h-1.119v-7.53h0.973l0.158 1.289-0.121-0.352c0.243-0.308 0.552-0.564 0.924-0.767 0.373-0.203 0.791-0.304 1.253-0.304v0c0.47 0 0.895 0.114 1.273 0.341 0.376 0.227 0.674 0.543 0.893 0.949 0.219 0.406 0.328 0.88 0.328 1.423v0c0 0.543-0.118 1.014-0.353 1.411-0.235 0.397-0.557 0.703-0.965 0.917-0.41 0.216-0.875 0.324-1.395 0.324zM68.77 177.571v0c0.324 0 0.623-0.075 0.896-0.226 0.271-0.149 0.487-0.356 0.649-0.621 0.162-0.263 0.243-0.56 0.244-0.893v0c0-0.341-0.077-0.643-0.231-0.907-0.154-0.263-0.358-0.471-0.614-0.626-0.256-0.154-0.543-0.231-0.858-0.231v0c-0.292 0-0.556 0.057-0.791 0.17-0.235 0.114-0.43 0.269-0.584 0.468-0.154 0.2-0.264 0.429-0.329 0.688v0 0.84c0.041 0.26 0.138 0.491 0.292 0.693 0.154 0.203 0.347 0.361 0.579 0.475 0.23 0.114 0.479 0.17 0.747 0.17zM79.269 169.554v7.202c0 0.714-0.135 1.322-0.406 1.825-0.273 0.503-0.644 0.886-1.114 1.15-0.47 0.263-1.01 0.406-1.618 0.431v0 0-1.143c0.568-0.032 1.036-0.233 1.404-0.601 0.37-0.37 0.555-0.936 0.554-1.699v0-7.165zM81.082 175.782v0c0-0.503 0.119-0.957 0.358-1.362 0.24-0.406 0.571-0.726 0.992-0.961 0.422-0.235 0.9-0.353 1.436-0.353v0c0.552 0 1.034 0.118 1.448 0.353 0.414 0.235 0.734 0.556 0.961 0.961 0.227 0.406 0.341 0.86 0.341 1.362v0c0 0.503-0.114 0.959-0.341 1.368-0.227 0.41-0.549 0.733-0.966 0.968-0.418 0.235-0.904 0.353-1.455 0.353v0c-0.535 0-1.011-0.112-1.428-0.336-0.418-0.222-0.748-0.534-0.988-0.936-0.238-0.401-0.358-0.873-0.358-1.417zM82.214 175.795v0c0 0.324 0.073 0.618 0.218 0.88 0.146 0.264 0.342 0.474 0.589 0.628 0.248 0.154 0.522 0.231 0.823 0.231v0c0.316 0 0.599-0.077 0.846-0.231 0.247-0.154 0.439-0.363 0.577-0.628 0.138-0.263 0.207-0.556 0.207-0.88v0c0-0.324-0.069-0.619-0.207-0.884-0.138-0.263-0.33-0.474-0.577-0.632-0.248-0.157-0.53-0.236-0.846-0.236v0c-0.308 0-0.586 0.081-0.835 0.243-0.247 0.162-0.44 0.375-0.581 0.638-0.143 0.264-0.214 0.555-0.214 0.871zM89.537 180.77h-1.119l3.321-7.457h1.047zM90.547 177.814l-0.888 0.572-2.421-5.073h1.277zM94.002 177.291h1.022c-0.178 0.422-0.354 0.842-0.528 1.26-0.175 0.417-0.352 0.84-0.53 1.271v0h-0.913c0.162-0.43 0.32-0.853 0.475-1.271 0.154-0.418 0.312-0.839 0.474-1.26zM100.596 169.554h2.263c0.884 0 1.58 0.18 2.087 0.54 0.506 0.362 0.759 0.924 0.76 1.686v0c0 0.462-0.105 0.864-0.317 1.204-0.211 0.341-0.504 0.608-0.881 0.803-0.378 0.195-0.822 0.304-1.333 0.329v0l-0.17-0.609c0.592 0.016 1.123 0.122 1.593 0.317 0.47 0.195 0.843 0.466 1.12 0.815 0.276 0.349 0.414 0.762 0.413 1.241v0c0 0.438-0.081 0.813-0.243 1.124-0.162 0.313-0.381 0.569-0.657 0.766-0.276 0.2-0.588 0.346-0.937 0.438-0.349 0.094-0.71 0.141-1.082 0.141v0h-2.616zM101.776 173.41h1.326c0.487 0 0.839-0.136 1.059-0.409 0.219-0.271 0.328-0.601 0.328-0.99v0c0-0.462-0.142-0.799-0.426-1.01-0.284-0.211-0.665-0.316-1.143-0.316v0h-1.144zM101.776 177.255h1.375c0.324 0 0.623-0.049 0.895-0.146 0.271-0.097 0.486-0.247 0.645-0.451 0.157-0.203 0.236-0.458 0.236-0.766v0c0-0.341-0.091-0.608-0.273-0.803-0.183-0.195-0.417-0.335-0.7-0.421-0.284-0.084-0.576-0.127-0.876-0.126v0h-1.302zM107.835 173.313h1.009l0.11 1.46-0.061-0.195c0.13-0.308 0.319-0.57 0.567-0.786 0.247-0.214 0.506-0.38 0.779-0.499 0.271-0.117 0.508-0.175 0.71-0.175v0l-0.061 1.119c-0.381-0.024-0.715 0.049-1.002 0.219-0.289 0.17-0.516 0.397-0.682 0.682-0.167 0.284-0.251 0.588-0.25 0.912v0 2.299h-1.119zM114.526 178.471v0c-0.576 0-1.071-0.116-1.484-0.348-0.414-0.23-0.732-0.547-0.954-0.949-0.224-0.401-0.336-0.861-0.336-1.379v0c0-0.495 0.126-0.945 0.377-1.351 0.251-0.406 0.588-0.73 1.01-0.973 0.422-0.243 0.892-0.365 1.411-0.365v0c0.665 0 1.217 0.195 1.655 0.584 0.438 0.389 0.734 0.925 0.888 1.606v0l-4.149 1.46-0.267-0.669 3.406-1.241-0.243 0.158c-0.097-0.268-0.26-0.501-0.487-0.701-0.227-0.198-0.523-0.297-0.888-0.297v0c-0.308 0-0.584 0.075-0.827 0.224-0.243 0.151-0.434 0.356-0.572 0.616-0.138 0.26-0.207 0.556-0.207 0.888v0c0 0.349 0.073 0.655 0.219 0.917 0.146 0.264 0.347 0.472 0.603 0.623 0.255 0.149 0.544 0.224 0.869 0.224v0c0.219 0 0.432-0.041 0.64-0.122 0.206-0.081 0.398-0.187 0.577-0.316v0l0.523 0.839c-0.251 0.17-0.533 0.308-0.844 0.414-0.313 0.105-0.62 0.158-0.92 0.158zM120.633 173.313h0.973l1.484 3.394-0.219 0.024 1.387-3.418h1.107l-2.311 5.341-1.618-3.455-1.472 3.455-2.336-5.341h1.107l1.569 3.552-0.389-0.073 1.119-2.603zM130.706 178.349v-8.795h1.18v7.664h4.465v1.131zM137.556 175.782v0c0-0.503 0.12-0.957 0.36-1.362 0.238-0.406 0.569-0.726 0.99-0.961 0.422-0.235 0.9-0.353 1.436-0.353v0c0.552 0 1.034 0.118 1.447 0.353 0.414 0.235 0.734 0.556 0.961 0.961 0.227 0.406 0.341 0.86 0.341 1.362v0c0 0.503-0.114 0.959-0.341 1.368-0.227 0.41-0.549 0.733-0.966 0.968-0.418 0.235-0.904 0.353-1.455 0.353v0c-0.535 0-1.011-0.112-1.428-0.336-0.418-0.222-0.747-0.534-0.985-0.936-0.24-0.401-0.36-0.873-0.36-1.417zM138.687 175.795v0c0 0.324 0.073 0.618 0.219 0.88 0.146 0.264 0.343 0.474 0.591 0.628 0.247 0.154 0.52 0.231 0.82 0.231v0c0.316 0 0.599-0.077 0.847-0.231 0.247-0.154 0.439-0.363 0.577-0.628 0.138-0.263 0.207-0.556 0.206-0.88v0c0-0.324-0.069-0.619-0.206-0.884-0.138-0.263-0.33-0.474-0.577-0.632-0.248-0.157-0.53-0.236-0.847-0.236v0c-0.308 0-0.586 0.081-0.832 0.243-0.248 0.162-0.443 0.375-0.584 0.638-0.143 0.264-0.214 0.555-0.214 0.871zM146.57 178.495h-0.06l-2.799-5.182h1.339l1.898 4.002-0.694-0.024 1.74-3.978h1.265zM152.69 178.471v0c-0.576 0-1.071-0.116-1.484-0.348-0.414-0.23-0.732-0.547-0.954-0.949-0.224-0.401-0.336-0.861-0.336-1.379v0c0-0.495 0.126-0.945 0.377-1.351 0.251-0.406 0.588-0.73 1.01-0.973 0.422-0.243 0.892-0.365 1.411-0.365v0c0.665 0 1.217 0.195 1.655 0.584 0.438 0.389 0.734 0.925 0.888 1.606v0l-4.149 1.46-0.267-0.669 3.406-1.241-0.243 0.158c-0.097-0.268-0.26-0.501-0.487-0.701-0.227-0.198-0.523-0.297-0.888-0.297v0c-0.308 0-0.584 0.075-0.827 0.224-0.243 0.151-0.434 0.356-0.572 0.616-0.138 0.26-0.207 0.556-0.207 0.888v0c0 0.349 0.073 0.655 0.219 0.917 0.146 0.264 0.347 0.472 0.603 0.623 0.255 0.149 0.544 0.224 0.869 0.224v0c0.219 0 0.432-0.041 0.64-0.122 0.206-0.081 0.398-0.187 0.577-0.316v0l0.523 0.839c-0.251 0.17-0.533 0.308-0.844 0.414-0.313 0.105-0.62 0.158-0.92 0.158zM162.617 178.471v0c-0.47 0-0.898-0.101-1.282-0.304-0.386-0.203-0.69-0.5-0.913-0.893-0.224-0.394-0.336-0.875-0.335-1.443v0c0-0.56 0.118-1.044 0.352-1.452 0.235-0.41 0.55-0.725 0.944-0.945 0.393-0.219 0.824-0.328 1.295-0.328v0c0.47 0 0.868 0.107 1.192 0.321 0.324 0.216 0.572 0.47 0.742 0.762v0l-0.073 0.194 0.11-1.07h1.046v5.036h-1.131v-1.313l0.121 0.292c-0.032 0.081-0.103 0.184-0.211 0.309-0.11 0.127-0.256 0.255-0.438 0.384-0.183 0.13-0.393 0.237-0.628 0.321-0.235 0.086-0.499 0.129-0.791 0.129zM162.921 177.534v0c0.284 0 0.539-0.053 0.767-0.158 0.227-0.105 0.416-0.254 0.567-0.445 0.149-0.19 0.252-0.418 0.309-0.686v0-0.986c-0.065-0.243-0.178-0.457-0.341-0.64-0.162-0.182-0.357-0.323-0.584-0.423-0.227-0.102-0.479-0.153-0.754-0.153v0c-0.3 0-0.576 0.073-0.828 0.219-0.251 0.146-0.452 0.349-0.601 0.608-0.151 0.26-0.226 0.564-0.226 0.912v0c0 0.324 0.077 0.62 0.231 0.889 0.154 0.268 0.361 0.479 0.621 0.632 0.26 0.154 0.539 0.231 0.839 0.231zM168.14 173.337v-2.238h1.132v2.238h1.387v0.888h-1.387v4.124h-1.132v-4.124h-0.924v-0.888zM182.107 176.646l0.498 1.047c-0.146 0.097-0.345 0.207-0.596 0.328-0.251 0.122-0.545 0.223-0.881 0.304-0.337 0.081-0.705 0.122-1.102 0.122v0c-0.681-0.008-1.295-0.13-1.842-0.365-0.548-0.235-1.013-0.556-1.394-0.961-0.381-0.406-0.675-0.874-0.881-1.407-0.208-0.53-0.311-1.096-0.311-1.696v0c0-0.657 0.108-1.264 0.324-1.82 0.214-0.555 0.516-1.037 0.905-1.447 0.389-0.409 0.85-0.727 1.382-0.954 0.53-0.227 1.112-0.341 1.744-0.341v0c0.527 0 1.006 0.071 1.436 0.212 0.43 0.143 0.799 0.311 1.107 0.506v0l-0.475 1.095c-0.243-0.162-0.537-0.316-0.88-0.462-0.346-0.146-0.729-0.219-1.151-0.219v0c-0.43 0-0.835 0.085-1.217 0.255-0.381 0.17-0.718 0.41-1.01 0.718-0.292 0.308-0.521 0.667-0.686 1.075-0.167 0.41-0.251 0.851-0.25 1.322v0c0 0.479 0.075 0.922 0.226 1.331 0.149 0.41 0.364 0.766 0.645 1.065 0.279 0.3 0.617 0.535 1.014 0.706 0.397 0.17 0.843 0.255 1.339 0.255v0c0.446 0 0.843-0.069 1.192-0.206 0.349-0.138 0.637-0.292 0.864-0.463zM183.871 175.782v0c0-0.503 0.12-0.957 0.36-1.362 0.238-0.406 0.569-0.726 0.99-0.961 0.422-0.235 0.9-0.353 1.436-0.353v0c0.552 0 1.034 0.118 1.447 0.353 0.414 0.235 0.734 0.556 0.961 0.961 0.227 0.406 0.341 0.86 0.341 1.362v0c0 0.503-0.114 0.959-0.341 1.368-0.227 0.41-0.549 0.733-0.966 0.968-0.418 0.235-0.904 0.353-1.455 0.353v0c-0.535 0-1.011-0.112-1.428-0.336-0.418-0.222-0.747-0.534-0.985-0.936-0.24-0.401-0.36-0.873-0.36-1.417zM185.002 175.795v0c0 0.324 0.073 0.618 0.219 0.88 0.146 0.264 0.343 0.474 0.591 0.628 0.247 0.154 0.52 0.231 0.82 0.231v0c0.316 0 0.599-0.077 0.847-0.231 0.247-0.154 0.439-0.363 0.577-0.628 0.138-0.263 0.207-0.556 0.206-0.88v0c0-0.324-0.069-0.619-0.206-0.884-0.138-0.263-0.33-0.474-0.577-0.632-0.248-0.157-0.53-0.236-0.847-0.236v0c-0.308 0-0.586 0.081-0.832 0.243-0.248 0.162-0.443 0.375-0.584 0.638-0.143 0.264-0.214 0.555-0.214 0.871zM192.484 178.349h-1.131v-4.026h-0.864v-1.01h0.864v-2.129c0-0.73 0.165-1.29 0.493-1.679 0.328-0.389 0.812-0.584 1.453-0.584v0c0.17 0 0.359 0.024 0.567 0.073 0.206 0.049 0.386 0.13 0.54 0.243v0l-0.474 0.815c-0.073-0.073-0.154-0.124-0.244-0.153-0.089-0.028-0.178-0.041-0.267-0.041v0c-0.3 0-0.531 0.101-0.694 0.304-0.162 0.203-0.243 0.547-0.243 1.034v0 2.117h1.594v1.01h-1.594zM197.095 178.349h-1.132v-4.026h-0.863v-1.01h0.863v-2.129c0-0.73 0.165-1.29 0.494-1.679 0.328-0.389 0.812-0.584 1.453-0.584v0c0.17 0 0.359 0.024 0.567 0.073 0.206 0.049 0.386 0.13 0.54 0.243v0l-0.474 0.815c-0.073-0.073-0.154-0.124-0.244-0.153-0.089-0.028-0.178-0.041-0.267-0.041v0c-0.3 0-0.531 0.101-0.694 0.304-0.162 0.203-0.243 0.547-0.243 1.034v0 2.117h1.593v1.01h-1.593zM202.229 178.471v0c-0.576 0-1.071-0.116-1.484-0.348-0.414-0.23-0.732-0.547-0.954-0.949-0.224-0.401-0.336-0.861-0.336-1.379v0c0-0.495 0.126-0.945 0.377-1.351 0.251-0.406 0.588-0.73 1.01-0.973 0.422-0.243 0.892-0.365 1.411-0.365v0c0.665 0 1.217 0.195 1.655 0.584 0.438 0.389 0.734 0.925 0.888 1.606v0l-4.149 1.46-0.267-0.669 3.406-1.241-0.243 0.158c-0.097-0.268-0.26-0.501-0.487-0.701-0.227-0.198-0.523-0.297-0.888-0.297v0c-0.308 0-0.584 0.075-0.827 0.224-0.243 0.151-0.434 0.356-0.572 0.616-0.138 0.26-0.207 0.556-0.207 0.888v0c0 0.349 0.073 0.655 0.219 0.917 0.146 0.264 0.347 0.472 0.603 0.623 0.255 0.149 0.544 0.224 0.869 0.224v0c0.219 0 0.432-0.041 0.64-0.122 0.206-0.081 0.398-0.187 0.577-0.316v0l0.523 0.839c-0.251 0.17-0.533 0.308-0.845 0.414-0.313 0.105-0.62 0.158-0.919 0.158zM208.555 178.471v0c-0.576 0-1.071-0.116-1.484-0.348-0.414-0.23-0.732-0.547-0.954-0.949-0.224-0.401-0.336-0.861-0.336-1.379v0c0-0.495 0.126-0.945 0.377-1.351 0.251-0.406 0.588-0.73 1.01-0.973 0.422-0.243 0.892-0.365 1.411-0.365v0c0.665 0 1.217 0.195 1.655 0.584 0.438 0.389 0.734 0.925 0.888 1.606v0l-4.149 1.46-0.267-0.669 3.406-1.241-0.243 0.158c-0.097-0.268-0.26-0.501-0.487-0.701-0.227-0.198-0.523-0.297-0.888-0.297v0c-0.308 0-0.584 0.075-0.827 0.224-0.243 0.151-0.434 0.356-0.572 0.616-0.138 0.26-0.207 0.556-0.207 0.888v0c0 0.349 0.073 0.655 0.219 0.917 0.146 0.264 0.347 0.472 0.604 0.623 0.255 0.149 0.544 0.224 0.868 0.224v0c0.219 0 0.432-0.041 0.64-0.122 0.206-0.081 0.398-0.187 0.577-0.316v0l0.523 0.839c-0.251 0.17-0.533 0.308-0.844 0.414-0.313 0.105-0.62 0.158-0.92 0.158zM222.46 169.554h1.168v8.795h-1.168v-3.856h-4.61v3.856h-1.181v-8.795h1.181v3.82h4.61zM225.441 175.782v0c0-0.503 0.12-0.957 0.36-1.362 0.238-0.406 0.569-0.726 0.99-0.961 0.422-0.235 0.9-0.353 1.436-0.353v0c0.552 0 1.034 0.118 1.448 0.353 0.414 0.235 0.734 0.556 0.961 0.961 0.227 0.406 0.341 0.86 0.34 1.362v0c0 0.503-0.114 0.959-0.34 1.368-0.227 0.41-0.549 0.733-0.966 0.968-0.418 0.235-0.904 0.353-1.455 0.353v0c-0.535 0-1.011-0.112-1.428-0.336-0.418-0.222-0.747-0.534-0.986-0.936-0.24-0.401-0.36-0.873-0.36-1.417zM226.572 175.795v0c0 0.324 0.073 0.618 0.219 0.88 0.146 0.264 0.343 0.474 0.592 0.628 0.247 0.154 0.52 0.231 0.82 0.231v0c0.316 0 0.599-0.077 0.846-0.231 0.247-0.154 0.439-0.363 0.577-0.628 0.138-0.263 0.207-0.556 0.207-0.88v0c0-0.324-0.069-0.619-0.207-0.884-0.138-0.263-0.33-0.474-0.577-0.632-0.248-0.157-0.53-0.236-0.846-0.236v0c-0.308 0-0.586 0.081-0.833 0.243-0.248 0.162-0.443 0.375-0.583 0.638-0.143 0.264-0.214 0.555-0.215 0.871zM234.103 178.544v0c-0.454 0-0.829-0.14-1.124-0.421-0.297-0.279-0.453-0.642-0.47-1.087v0-3.723h1.132v3.321c0.016 0.276 0.096 0.499 0.238 0.669 0.141 0.17 0.366 0.26 0.674 0.268v0c0.284 0 0.538-0.084 0.762-0.251 0.222-0.165 0.402-0.393 0.54-0.681 0.138-0.287 0.207-0.613 0.207-0.978v0-2.348h1.131v5.036h-1.034l-0.097-1.24 0.061 0.219c-0.097 0.235-0.245 0.444-0.443 0.625-0.2 0.183-0.433 0.328-0.701 0.433-0.268 0.105-0.56 0.158-0.876 0.158zM240.563 178.447v0c-0.357 0-0.703-0.063-1.039-0.19-0.337-0.125-0.616-0.313-0.834-0.565v0l0.474-0.656c0.211 0.203 0.428 0.354 0.652 0.455 0.222 0.102 0.443 0.153 0.662 0.153v0c0.162 0 0.312-0.02 0.45-0.061 0.138-0.041 0.25-0.108 0.336-0.202 0.084-0.092 0.127-0.22 0.126-0.382v0c0-0.178-0.058-0.32-0.175-0.426-0.118-0.105-0.268-0.191-0.45-0.255-0.183-0.065-0.376-0.126-0.579-0.183v0c-0.414-0.138-0.73-0.328-0.949-0.572-0.219-0.243-0.328-0.539-0.329-0.888v0c0-0.268 0.067-0.517 0.202-0.749 0.133-0.23 0.332-0.418 0.597-0.565 0.263-0.146 0.589-0.219 0.978-0.218v0c0.349 0 0.661 0.042 0.936 0.126 0.276 0.086 0.535 0.226 0.779 0.421v0l-0.45 0.706c-0.146-0.154-0.32-0.268-0.523-0.341-0.203-0.073-0.385-0.114-0.548-0.122v0c-0.138-0.008-0.269 0.012-0.394 0.061-0.127 0.049-0.23 0.118-0.311 0.207-0.081 0.089-0.122 0.195-0.122 0.316v0c0 0.17 0.057 0.308 0.17 0.414 0.114 0.105 0.262 0.188 0.446 0.248 0.182 0.062 0.362 0.125 0.54 0.19v0c0.251 0.073 0.474 0.17 0.669 0.292 0.195 0.122 0.351 0.272 0.47 0.45 0.117 0.178 0.175 0.401 0.175 0.669v0c0 0.3-0.071 0.577-0.212 0.832-0.143 0.256-0.358 0.459-0.645 0.609-0.289 0.151-0.656 0.226-1.102 0.226zM246.439 178.471v0c-0.576 0-1.071-0.116-1.484-0.348-0.414-0.23-0.732-0.547-0.954-0.949-0.224-0.401-0.336-0.861-0.336-1.379v0c0-0.495 0.126-0.945 0.377-1.351 0.251-0.406 0.588-0.73 1.01-0.973 0.422-0.243 0.892-0.365 1.411-0.365v0c0.665 0 1.217 0.195 1.655 0.584 0.438 0.389 0.734 0.925 0.888 1.606v0l-4.148 1.46-0.268-0.669 3.406-1.241-0.243 0.158c-0.097-0.268-0.26-0.501-0.487-0.701-0.227-0.198-0.523-0.297-0.888-0.297v0c-0.308 0-0.584 0.075-0.827 0.224-0.243 0.151-0.434 0.356-0.572 0.616-0.138 0.26-0.207 0.556-0.207 0.888v0c0 0.349 0.073 0.655 0.219 0.917 0.146 0.264 0.347 0.472 0.604 0.623 0.255 0.149 0.544 0.224 0.868 0.224v0c0.219 0 0.432-0.041 0.64-0.122 0.206-0.081 0.398-0.187 0.577-0.316v0l0.523 0.839c-0.251 0.17-0.533 0.308-0.844 0.414-0.313 0.105-0.62 0.158-0.92 0.158z" fill="#ffffff" fill-rule="nonzero" stroke="none" stroke-width="1" stroke-linecap="butt" stroke-linejoin="miter" stroke-miterlimit="10" stroke-dasharray="" stroke-dashoffset="0" font-family="none" font-weight="none" font-size="none" text-anchor="none" style="mix-blend-mode: normal" data-fill-palette-color="secondary" id="text-1"></path></g></g><g transform="matrix(1,0,0,1,29.33176499999999,36.503261440677974)"><svg viewBox="0 0 316.416 38.11362711864406" height="38.11362711864406" width="316.416"><g><svg viewBox="0 0 316.416 38.11362711864406" height="38.11362711864406" width="316.416"><g><svg viewBox="0 0 316.41600000000005 38.11362711864407" height="38.11362711864406" width="316.416"><g><svg viewBox="0 0 316.41600000000005 38.11362711864407" height="38.11362711864407" width="316.41600000000005"><g id="textblocktransform"><svg viewBox="0 0 316.41600000000005 38.11362711864407" height="38.11362711864407" width="316.41600000000005" id="textblock"><g><svg viewBox="0 0 316.41600000000005 38.11362711864407" height="38.11362711864407" width="316.41600000000005"><g transform="matrix(1,0,0,1,0,0)"><svg width="316.41600000000005" viewBox="2.35 -36 303.82 36.6" height="38.11362711864407" data-palette-color="#7c4e29"><path d="M19.05 0.6L19.05 0.6Q13.9 0.6 10.18-1.68 6.45-3.95 4.4-8.03 2.35-12.1 2.35-17.5L2.35-17.5Q2.35-22.85 4.4-26.93 6.45-31 10.18-33.3 13.9-35.6 19.05-35.6L19.05-35.6Q25.05-35.6 28.83-32.73 32.6-29.85 33.65-24.7L33.65-24.7 29-24.7Q28.2-27.95 25.73-29.93 23.25-31.9 19.05-31.9L19.05-31.9Q15.3-31.9 12.5-30.18 9.7-28.45 8.18-25.23 6.65-22 6.65-17.5L6.65-17.5Q6.65-13 8.18-9.78 9.7-6.55 12.5-4.83 15.3-3.1 19.05-3.1L19.05-3.1Q23.25-3.1 25.73-5.03 28.2-6.95 29-10.15L29-10.15 33.65-10.15Q32.6-5.1 28.83-2.25 25.05 0.6 19.05 0.6ZM50.75 0.6L50.75 0.6Q47.25 0.6 44.45-1 41.65-2.6 40.02-5.53 38.4-8.45 38.4-12.4L38.4-12.4Q38.4-16.35 40.05-19.28 41.7-22.2 44.52-23.8 47.35-25.4 50.85-25.4L50.85-25.4Q54.35-25.4 57.15-23.8 59.95-22.2 61.57-19.28 63.2-16.35 63.2-12.4L63.2-12.4Q63.2-8.45 61.55-5.53 59.9-2.6 57.07-1 54.25 0.6 50.75 0.6ZM50.75-3L50.75-3Q52.9-3 54.75-4.05 56.6-5.1 57.75-7.2 58.9-9.3 58.9-12.4L58.9-12.4Q58.9-15.5 57.77-17.6 56.65-19.7 54.8-20.75 52.95-21.8 50.85-21.8L50.85-21.8Q48.7-21.8 46.85-20.75 45-19.7 43.85-17.6 42.7-15.5 42.7-12.4L42.7-12.4Q42.7-9.3 43.85-7.2 45-5.1 46.82-4.05 48.65-3 50.75-3ZM74.59 0L70.39 0 70.39-21.25 66.64-21.25 66.64-24.8 70.39-24.8 70.39-29.1Q70.39-32.7 72.19-34.35 74-36 77.44-36L77.44-36 79.94-36 79.94-32.4 78.09-32.4Q76.19-32.4 75.39-31.63 74.59-30.85 74.59-29L74.59-29 74.59-24.8 80.69-24.8 80.69-21.25 74.59-21.25 74.59 0ZM91.24 0L87.04 0 87.04-21.25 83.29-21.25 83.29-24.8 87.04-24.8 87.04-29.1Q87.04-32.7 88.84-34.35 90.64-36 94.09-36L94.09-36 96.59-36 96.59-32.4 94.74-32.4Q92.84-32.4 92.04-31.63 91.24-30.85 91.24-29L91.24-29 91.24-24.8 97.34-24.8 97.34-21.25 91.24-21.25 91.24 0ZM112.49 0.6L112.49 0.6Q108.94 0.6 106.19-1.03 103.44-2.65 101.87-5.55 100.29-8.45 100.29-12.4L100.29-12.4Q100.29-16.3 101.84-19.23 103.39-22.15 106.17-23.78 108.94-25.4 112.59-25.4L112.59-25.4Q116.19-25.4 118.82-23.78 121.44-22.15 122.84-19.5 124.24-16.85 124.24-13.8L124.24-13.8Q124.24-13.25 124.22-12.7 124.19-12.15 124.19-11.45L124.19-11.45 104.44-11.45Q104.59-8.6 105.77-6.73 106.94-4.85 108.72-3.9 110.49-2.95 112.49-2.95L112.49-2.95Q115.09-2.95 116.84-4.15 118.59-5.35 119.39-7.4L119.39-7.4 123.54-7.4Q122.54-3.95 119.72-1.68 116.89 0.6 112.49 0.6ZM112.49-21.85L112.49-21.85Q109.49-21.85 107.17-20.03 104.84-18.2 104.49-14.7L104.49-14.7 120.09-14.7Q119.94-18.05 117.79-19.95 115.64-21.85 112.49-21.85ZM140.94 0.6L140.94 0.6Q137.39 0.6 134.64-1.03 131.89-2.65 130.31-5.55 128.74-8.45 128.74-12.4L128.74-12.4Q128.74-16.3 130.29-19.23 131.84-22.15 134.61-23.78 137.39-25.4 141.04-25.4L141.04-25.4Q144.64-25.4 147.26-23.78 149.89-22.15 151.29-19.5 152.69-16.85 152.69-13.8L152.69-13.8Q152.69-13.25 152.66-12.7 152.64-12.15 152.64-11.45L152.64-11.45 132.89-11.45Q133.04-8.6 134.21-6.73 135.39-4.85 137.16-3.9 138.94-2.95 140.94-2.95L140.94-2.95Q143.54-2.95 145.29-4.15 147.04-5.35 147.84-7.4L147.84-7.4 151.99-7.4Q150.99-3.95 148.16-1.68 145.34 0.6 140.94 0.6ZM140.94-21.85L140.94-21.85Q137.94-21.85 135.61-20.03 133.29-18.2 132.94-14.7L132.94-14.7 148.54-14.7Q148.39-18.05 146.24-19.95 144.09-21.85 140.94-21.85ZM175.68 0L171.48 0 171.48-36 175.68-36 175.68-20.55Q176.93-22.85 179.23-24.13 181.53-25.4 184.23-25.4L184.23-25.4Q188.53-25.4 191.13-22.73 193.73-20.05 193.73-14.5L193.73-14.5 193.73 0 189.58 0 189.58-14.05Q189.58-21.8 183.33-21.8L183.33-21.8Q180.08-21.8 177.88-19.48 175.68-17.15 175.68-12.85L175.68-12.85 175.68 0ZM211.38 0.6L211.38 0.6Q207.88 0.6 205.08-1 202.28-2.6 200.66-5.53 199.03-8.45 199.03-12.4L199.03-12.4Q199.03-16.35 200.68-19.28 202.33-22.2 205.16-23.8 207.98-25.4 211.48-25.4L211.48-25.4Q214.98-25.4 217.78-23.8 220.58-22.2 222.21-19.28 223.83-16.35 223.83-12.4L223.83-12.4Q223.83-8.45 222.18-5.53 220.53-2.6 217.71-1 214.88 0.6 211.38 0.6ZM211.38-3L211.38-3Q213.53-3 215.38-4.05 217.23-5.1 218.38-7.2 219.53-9.3 219.53-12.4L219.53-12.4Q219.53-15.5 218.41-17.6 217.28-19.7 215.43-20.75 213.58-21.8 211.48-21.8L211.48-21.8Q209.33-21.8 207.48-20.75 205.63-19.7 204.48-17.6 203.33-15.5 203.33-12.4L203.33-12.4Q203.33-9.3 204.48-7.2 205.63-5.1 207.46-4.05 209.28-3 211.38-3ZM238.73 0.6L238.73 0.6Q234.33 0.6 231.73-2.08 229.13-4.75 229.13-10.3L229.13-10.3 229.13-24.8 233.33-24.8 233.33-10.75Q233.33-3 239.68-3L239.68-3Q242.93-3 245.05-5.33 247.18-7.65 247.18-11.95L247.18-11.95 247.18-24.8 251.38-24.8 251.38 0 247.58 0 247.28-4.45Q246.13-2.1 243.85-0.75 241.58 0.6 238.73 0.6ZM267.78 0.6L267.78 0.6Q263.33 0.6 260.38-1.65 257.43-3.9 256.93-7.75L256.93-7.75 261.23-7.75Q261.63-5.8 263.3-4.38 264.98-2.95 267.83-2.95L267.83-2.95Q270.48-2.95 271.73-4.08 272.98-5.2 272.98-6.75L272.98-6.75Q272.98-9 271.35-9.75 269.73-10.5 266.78-11.1L266.78-11.1Q264.78-11.5 262.78-12.25 260.78-13 259.43-14.38 258.08-15.75 258.08-18L258.08-18Q258.08-21.25 260.5-23.33 262.93-25.4 267.08-25.4L267.08-25.4Q271.03-25.4 273.55-23.43 276.08-21.45 276.48-17.8L276.48-17.8 272.33-17.8Q272.08-19.7 270.7-20.78 269.33-21.85 267.03-21.85L267.03-21.85Q264.78-21.85 263.55-20.9 262.33-19.95 262.33-18.4L262.33-18.4Q262.33-16.9 263.9-16.05 265.48-15.2 268.18-14.6L268.18-14.6Q270.48-14.1 272.55-13.38 274.63-12.65 275.95-11.23 277.28-9.8 277.28-7.1L277.28-7.1Q277.33-3.75 274.75-1.58 272.18 0.6 267.78 0.6ZM294.42 0.6L294.42 0.6Q290.87 0.6 288.12-1.03 285.37-2.65 283.8-5.55 282.22-8.45 282.22-12.4L282.22-12.4Q282.22-16.3 283.77-19.23 285.32-22.15 288.1-23.78 290.87-25.4 294.52-25.4L294.52-25.4Q298.12-25.4 300.75-23.78 303.37-22.15 304.77-19.5 306.17-16.85 306.17-13.8L306.17-13.8Q306.17-13.25 306.15-12.7 306.12-12.15 306.12-11.45L306.12-11.45 286.37-11.45Q286.52-8.6 287.7-6.73 288.87-4.85 290.65-3.9 292.42-2.95 294.42-2.95L294.42-2.95Q297.02-2.95 298.77-4.15 300.52-5.35 301.32-7.4L301.32-7.4 305.47-7.4Q304.47-3.95 301.65-1.68 298.82 0.6 294.42 0.6ZM294.42-21.85L294.42-21.85Q291.42-21.85 289.1-20.03 286.77-18.2 286.42-14.7L286.42-14.7 302.02-14.7Q301.87-18.05 299.72-19.95 297.57-21.85 294.42-21.85Z" opacity="1" transform="matrix(1,0,0,1,0,0)" fill="#ffffff" class="wordmark-text-0" data-fill-palette-color="primary" id="text-0"></path></svg></g></svg></g></svg></g></svg></g></svg></g></svg></g></svg></g></svg></g><defs></defs></svg><rect width="375.07953" height="111.12015000000001" fill="none" stroke="none" visibility="hidden"></rect></g></svg></g></svg>